<?xml version="1.0" encoding="UTF-8"?>
<!DOCTYPE svg PUBLIC "-//W3C//DTD SVG 1.1//EN" "http://www.w3.org/Graphics/SVG/1.1/DTD/svg11.dtd">
<!-- Creator: CorelDRAW X5 -->
<svg xmlns="http://www.w3.org/2000/svg" xml:space="preserve" width="8.305mm" height="5.4085mm" style="shape-rendering:geometricPrecision; text-rendering:geometricPrecision; image-rendering:optimizeQuality; fill-rule:evenodd; clip-rule:evenodd"
viewBox="0 0 1.30723 0.851312"
 xmlns:xlink="http://www.w3.org/1999/xlink">
 <defs>
  <style type="text/css">
   <![CDATA[
    .fil0 {fill:#FFDD00}
    .fil1 {fill:black;fill-rule:nonzero}
   ]]>
  </style>
 </defs>
 <g id="Laag_x0020_1">
  <metadata id="CorelCorpID_0Corel-Layer"/>
  <rect class="fil0" width="1.30723" height="0.851311"/>
  <path class="fil1" d="M0.905254 0.0377451l-0.781142 0c-0.0119469,0 -0.02339,0.00240826 -0.0337628,0.00673683 -0.010908,0.00453319 -0.0207614,0.0112071 -0.0289936,0.0194077l-4.72208e-005 3.14805e-005 -3.14805e-005 4.72208e-005c-0.00821641,0.00823215 -0.0148745,0.0180856 -0.0194077,0.0289778 -0.00432857,0.0103886 -0.00673683,0.0218317 -0.00673683,0.0337943l0 0.592211c0,0.0120413 0.00240826,0.0235317 0.00673683,0.033936 0.00450171,0.0108293 0.0111598,0.020667 0.0194077,0.0289149l0 6.2961e-005c0.00815345,0.00816919 0.0179911,0.0148116 0.0288991,0.019329 0.0104043,0.00431283 0.0218947,0.00672109 0.033936,0.00672109l0.780969 0 0.355431 -0.350079 6.2961e-005 -6.2961e-005c0.0138986,-0.0135209 0.019817,-0.0251844 0.0193605,-0.0356359 -0.000456467,-0.0106247 -0.00755532,-0.0218003 -0.0195494,-0.0337943l3.14805e-005 -3.14805e-005 -0.355163 -0.350567zm-0.781142 0.0490781l0.726224 0 0.00878306 0 0.00462764 0.0075081 0.196879 0.320267 0.00511558 0.0083266 -0.00530447 0.0083266 -0.204324 0.320283 -0.00467486 0.00731922 -0.00854696 0 -0.718779 0c-0.00530447,0 -0.0104673,-0.00110182 -0.0151893,-0.00306935 -0.00491096,-0.00203049 -0.00933397,-0.00502114 -0.01297,-0.00865714 -0.003636,-0.003636 -0.00664239,-0.00807475 -0.00867288,-0.012907l0 -6.2961e-005c-0.00195179,-0.00470634 -0.00306935,-0.00986914 -0.00306935,-0.0152051l0 -0.592211c0,-0.0110497 0.00448597,-0.0210605 0.0116006,-0.0281751l0.000141662 -0.000141662c0.00357304,-0.00357304 0.00801179,-0.00654795 0.0129542,-0.0085627 0.00475356,-0.00195179 0.0099321,-0.00303787 0.0152051,-0.00303787z"/>
  <polygon class="fil1" points="0.455255,0.656196 0.380647,0.656196 0.380647,0.202923 0.702283,0.202923 0.702283,0.277532 0.455255,0.277532 0.455255,0.377813 0.59983,0.377813 0.59983,0.453052 0.455255,0.453052 "/>
 </g>
</svg>
